<svg width="128" height="56" viewBox="0 0 128 56" fill="none" xmlns="http://www.w3.org/2000/svg">
<g clip-path="url(#clip0_1_9449)">
<g clip-path="url(#clip1_1_9449)">
<mask id="mask0_1_9449" style="mask-type:luminance" maskUnits="userSpaceOnUse" x="0" y="12" width="128" height="32">
<path d="M127.488 12.6399H0.511719V43.1471H127.488V12.6399Z" fill="white"/>
</mask>
<g mask="url(#mask0_1_9449)">
<path d="M49.8521 31.2539L48.2167 35.7974C48.2167 35.9799 48.0348 35.9799 48.0348 35.9799H45.4906C45.3086 35.9799 45.3086 35.9799 45.3086 35.7974C46.7622 31.9814 48.9433 25.4389 50.5787 21.0767C50.5787 20.8957 50.7608 20.5319 50.7608 19.6233C50.7608 19.4414 50.7608 19.4414 50.9426 19.4414H54.3954C54.5773 19.2595 54.5773 19.4414 54.5773 19.4414C56.3937 24.7115 58.575 30.3454 60.3923 35.6163C60.3923 35.7975 60.3923 35.7975 60.2113 35.7975H57.3025C57.1214 35.7975 57.1214 35.7975 57.1214 35.6163L55.4851 31.0731H49.8521V31.2539ZM54.9401 28.71C54.3954 27.0745 53.1229 23.6218 52.7598 21.8045C52.3962 23.44 51.3055 26.3477 50.5788 28.71H54.9401ZM62.0287 29.8005C62.0287 26.1658 64.7547 23.2579 69.1151 23.2579C69.6617 23.2579 70.2065 23.2579 70.5705 23.4398V17.9878C70.5705 17.8059 70.5705 17.8059 70.7514 17.8059H73.4774C73.6584 17.8059 73.6584 17.8059 73.6584 17.9878V34.525C73.6584 34.7074 73.6584 34.7074 73.4774 34.7074C71.8413 35.4335 70.0236 35.9799 68.3892 35.9799C64.5719 36.1611 62.0287 34.1628 62.0287 29.8005ZM70.3875 25.9839C70.0237 25.802 69.4789 25.802 68.9339 25.802C66.5719 25.802 65.1183 27.2564 65.1183 29.8005C65.1183 32.7075 66.7529 33.7989 68.7531 33.7989C69.2978 33.7989 70.0237 33.6162 70.5703 33.6162V25.9839H70.3875ZM88.9246 29.6195C88.9246 33.6163 86.3797 36.1611 82.745 36.1611C78.3845 36.1611 76.5672 32.8903 76.5672 29.8005C76.5672 25.9839 79.1104 23.4398 82.9278 23.4398C86.7436 23.2579 88.9246 26.1658 88.9246 29.6195ZM79.657 29.6195C79.657 32.1627 80.7468 33.799 82.7452 33.799C84.3814 33.799 85.654 32.7076 85.654 29.6195C85.654 27.2564 84.7453 25.4391 82.5643 25.4391C80.9277 25.6201 79.657 27.0745 79.657 29.6195ZM94.3767 17.9878C94.5579 17.9878 94.5579 17.9878 94.5579 18.1697V23.9846C95.4664 23.6217 96.3752 23.4398 97.2838 23.4398C100.738 23.4398 102.919 25.9839 102.919 29.2558C102.919 33.6162 99.4648 36.3422 95.4664 36.3422C94.1956 36.3422 92.9232 36.161 91.6507 35.7974C91.4698 35.7974 91.4698 35.6162 91.4698 35.6162V18.1697C91.4698 17.9878 91.4698 17.9878 91.6507 17.9878H94.3767ZM96.739 25.802C96.0131 25.802 95.2855 25.9839 94.7406 26.1658V33.6162C95.1044 33.7989 95.6492 33.7989 96.194 33.7989C98.0114 33.7989 100.192 32.3454 100.192 29.4365C100.01 27.0745 98.5563 25.802 96.739 25.802ZM108.734 30.3454C108.734 32.3455 110.005 33.6162 112.551 33.6162C113.459 33.6162 114.548 33.435 115.64 33.0714C115.64 33.0714 115.821 33.0714 115.821 33.2542V35.2525C115.821 35.4335 115.821 35.4335 115.64 35.6162C114.732 36.161 113.459 36.3422 111.823 36.3422C107.279 36.3422 105.461 33.2542 105.461 29.9813C105.461 26.3476 107.643 23.4396 111.46 23.4396C115.276 23.4396 116.73 26.3476 116.73 28.7098C116.73 29.8004 116.548 30.3452 116.548 30.3452L108.734 30.3454ZM112.731 28.346C113.64 28.346 113.822 28.1652 113.822 28.1652V27.8013C113.822 27.0745 113.278 25.4391 111.278 25.4391C109.643 25.4391 108.734 26.7106 108.552 28.346H112.731Z" fill="white"/>
<path d="M22.2002 12.718L34.9216 43.067V12.718H22.2002ZM0.574219 12.718V43.067L13.2955 12.718H0.574219ZM12.2049 36.8891H18.0208L20.5649 43.067H25.835L17.6571 23.803L12.2049 36.8891Z" fill="white"/>
</g>
</g>
</g>
<defs>
<clipPath id="clip0_1_9449">
<rect width="128" height="56" fill="white"/>
</clipPath>
<clipPath id="clip1_1_9449">
<rect width="128" height="30.72" fill="white" transform="translate(0 12.6399)"/>
</clipPath>
</defs>
</svg>
