<svg width="128" height="56" viewBox="0 0 128 56" fill="none" xmlns="http://www.w3.org/2000/svg">
<g clip-path="url(#clip0_1_9459)">
<g clip-path="url(#clip1_1_9459)">
<mask id="mask0_1_9459" style="mask-type:luminance" maskUnits="userSpaceOnUse" x="19" y="13" width="95" height="25">
<path d="M113.963 13.5H19.4629V37.5H113.963V13.5Z" fill="white"/>
</mask>
<g mask="url(#mask0_1_9459)">
<path d="M31.2171 37.4042C30.9962 37.4042 30.8194 37.4042 30.6426 37.4042C28.3669 37.4042 26.0911 37.4283 23.8374 37.4042C22.821 37.4042 21.8931 36.995 21.1418 36.2006C20.7883 35.8154 20.4569 35.4303 20.1696 34.9729C19.8382 34.4433 19.6615 33.8174 19.551 33.1675C19.4405 32.5416 19.4405 31.9398 19.5731 31.338C19.7057 30.7843 19.8824 30.2547 20.1255 29.7492C20.5453 28.8345 21.0314 27.9197 21.4953 27.005C21.8489 26.331 22.2024 25.657 22.5338 24.9829C23.1746 23.7312 23.8153 22.4553 24.4561 21.2036C24.9642 20.2166 25.4945 19.2297 26.0027 18.2427C26.3562 17.5446 26.7097 16.8225 27.0633 16.1244C27.5273 15.2096 28.1901 14.4874 29.0739 14.006C29.8693 13.5727 30.731 13.4283 31.5927 13.5246C32.587 13.6208 33.4487 14.0541 34.1999 14.8004C34.8186 15.4263 35.3047 16.1725 35.5477 17.0632C35.6582 17.4724 35.6582 17.9298 35.6361 18.339C35.6361 19.1093 35.2384 19.7593 34.9733 20.4333C34.7523 20.9629 34.5314 21.4925 34.2662 22.022C34.0674 22.4313 33.8464 22.8164 33.6034 23.1775C32.83 24.3811 31.9904 25.5607 31.2392 26.7643C30.6647 27.679 30.2007 28.6419 29.8914 29.7011C29.5158 31.001 29.4274 32.2768 29.6484 33.6008C29.8693 34.9007 30.2449 36.1284 31.0404 37.1635C31.0845 37.2116 31.1287 37.2838 31.1729 37.4042H31.2171Z" fill="white"/>
<path d="M36.7194 19.0371C36.9182 19.4463 37.1171 19.8074 37.3159 20.1926C37.9788 21.4684 38.6195 22.7683 39.2824 24.0441C40.0336 25.4884 40.7628 26.9569 41.514 28.4012C41.8675 29.0993 42.2652 29.7974 42.5303 30.5195C43.4804 33.1675 42.1989 36.2006 39.7685 37.1875C39.2603 37.4042 38.7079 37.5005 38.1556 37.5005C36.9182 37.5005 35.6809 37.4523 34.4436 37.5005C33.361 37.5486 32.6318 36.9709 32.0353 36.1043C31.4829 35.2858 31.2177 34.3711 31.041 33.3841C30.8863 32.4935 30.9084 31.6028 31.0852 30.7362C31.2398 29.9659 31.4829 29.1956 31.8806 28.5456C32.7644 27.1254 33.6703 25.7292 34.5762 24.333C35.6146 22.7683 36.3438 21.0592 36.6752 19.1575C36.6752 19.1575 36.6973 19.1093 36.7415 19.0612L36.7194 19.0371Z" fill="white"/>
<path d="M76.6214 24.02C76.997 23.4664 77.5052 23.1294 78.0796 22.9127C79.2507 22.5035 80.8194 22.8164 81.5265 24.0923C81.6369 24.3089 81.7253 24.1645 81.7916 24.0682C82.1672 23.5386 82.6312 23.1294 83.2278 22.9368C84.3988 22.5757 85.5256 22.672 86.4978 23.5627C87.1165 24.1404 87.4479 24.9107 87.47 25.7773C87.5142 27.0531 87.4921 28.329 87.5142 29.6048C87.5142 30.4473 87.5142 31.2898 87.5142 32.1324C87.5142 32.349 87.47 32.4453 87.249 32.4453C86.6746 32.4453 86.078 32.4453 85.5035 32.4453C85.3047 32.4453 85.2384 32.3731 85.2384 32.1564C85.2384 30.3751 85.2384 28.6178 85.2384 26.8365C85.2384 26.3791 85.1721 25.9217 84.8628 25.5847C84.1116 24.6941 82.6312 25.007 82.2556 26.1625C82.1672 26.4032 82.1451 26.668 82.123 26.9087C82.123 28.6419 82.123 30.3751 82.123 32.0842C82.123 32.4212 82.123 32.4453 81.7916 32.4453C81.2171 32.4453 80.6648 32.4453 80.0903 32.4453C79.7589 32.4453 79.7589 32.4453 79.7589 32.0842C79.7589 30.351 79.7589 28.6178 79.7589 26.8846C79.7589 26.6198 79.7368 26.355 79.6705 26.0902C79.4274 25.2236 78.5878 24.9348 77.8808 25.1033C77.0854 25.3199 76.6435 25.9217 76.6435 26.8124C76.6435 28.5697 76.6435 30.327 76.6435 32.0842C76.6435 32.4212 76.6435 32.4453 76.3121 32.4453C75.7155 32.4453 75.1189 32.4453 74.5224 32.4453C74.3235 32.4453 74.2793 32.3731 74.2793 32.1564C74.2793 29.2196 74.2793 26.2588 74.2793 23.3219C74.2793 23.1053 74.3456 23.009 74.5666 23.009C75.141 23.009 75.7376 23.009 76.3121 23.009C76.4888 23.009 76.5551 23.0812 76.5551 23.2497C76.5551 23.4905 76.5551 23.7312 76.5551 23.996C76.5772 23.996 76.5993 23.996 76.6435 24.02H76.6214Z" fill="white"/>
<path d="M61.0675 32.4199C61.0675 32.4199 60.8907 32.4199 60.8245 32.4199C60.1395 32.4199 59.4546 32.4199 58.7696 32.4199C58.5266 32.4199 58.4382 32.3236 58.3719 32.1069C58.0847 31.2644 57.7974 30.3978 57.5323 29.5553C57.466 29.3627 57.3776 29.3145 57.2009 29.3145C55.6542 29.3145 54.1297 29.3145 52.583 29.3145C52.4284 29.3145 52.34 29.3868 52.2958 29.5312C52.0086 30.3978 51.7213 31.2885 51.4341 32.1551C51.3678 32.3236 51.3015 32.4199 51.1248 32.4199C50.4177 32.4199 49.7107 32.4199 49.0258 32.4199C48.849 32.4199 48.8048 32.3717 48.8711 32.1551C49.313 30.9515 49.7328 29.7238 50.1526 28.4961C50.5282 27.461 50.9038 26.4018 51.2574 25.3667C51.6551 24.2594 52.0307 23.1521 52.4284 22.0688C52.7598 21.13 53.0912 20.2152 53.4227 19.3005C53.4447 19.2283 53.4447 19.132 53.4889 19.0839C53.5773 18.9876 53.6657 18.8672 53.7762 18.8672C54.5716 18.8672 55.367 18.8672 56.1845 18.8672C56.3392 18.8672 56.4276 18.9153 56.4718 19.0839C56.9137 20.3597 57.3776 21.6596 57.8195 22.9354C58.3277 24.3797 58.8138 25.8241 59.322 27.2684C59.7639 28.5683 60.2279 29.8441 60.6919 31.144C60.8245 31.5051 60.957 31.8662 61.0675 32.2273C61.0675 32.2754 61.0675 32.3236 61.0896 32.4199H61.0675ZM54.9472 21.9725C54.9472 21.9725 54.903 21.9725 54.8588 21.9725C54.7925 22.141 54.7042 22.3095 54.6379 22.478C54.1739 23.8502 53.732 25.2223 53.268 26.5703C53.1575 26.8833 53.1796 26.9073 53.4889 26.9073C54.3948 26.9073 55.3228 26.9073 56.2287 26.9073C56.538 26.9073 56.5601 26.8592 56.4497 26.5222C56.1403 25.6315 55.8531 24.7168 55.5438 23.8261C55.3228 23.2002 55.124 22.5743 54.903 21.9484L54.9472 21.9725Z" fill="white"/>
<path d="M104.373 28.4247C103.445 28.4247 102.517 28.4247 101.611 28.4247C101.302 28.4247 101.257 28.4729 101.324 28.7858C101.478 29.4839 101.854 29.9894 102.473 30.3264C103.135 30.6634 104.306 30.6634 104.903 30.0135C105.08 29.8209 105.212 29.5802 105.345 29.3395C105.411 29.195 105.5 29.1469 105.632 29.195C106.162 29.3635 106.671 29.532 107.201 29.7006C107.356 29.7487 107.378 29.845 107.311 29.9894C106.671 31.6985 105.455 32.5651 103.798 32.7096C102.671 32.8059 101.655 32.517 100.727 31.7948C99.9317 31.169 99.4235 30.3024 99.1584 29.2673C98.8933 28.2321 98.8712 27.197 99.1584 26.186C99.5782 24.6454 100.484 23.514 101.92 23.0085C103.268 22.527 104.572 22.6955 105.787 23.5381C106.538 24.0677 106.98 24.838 107.245 25.7286C107.466 26.4989 107.51 27.2693 107.488 28.0877C107.488 28.3525 107.4 28.4488 107.157 28.4488C106.229 28.4488 105.301 28.4488 104.373 28.4488V28.4247ZM103.246 26.6675C103.798 26.6675 104.373 26.6675 104.925 26.6675C105.124 26.6675 105.212 26.5952 105.146 26.3545C104.991 25.5601 104.549 25.0787 103.842 24.8861C102.782 24.5972 101.655 25.1509 101.368 26.3304C101.302 26.6193 101.324 26.6675 101.589 26.6675C102.141 26.6675 102.671 26.6675 103.224 26.6675H103.246Z" fill="white"/>
<path d="M94.6304 28.4245C93.7024 28.4245 92.7744 28.4245 91.8243 28.4245C91.5371 28.4245 91.515 28.4727 91.5813 28.7616C91.8464 29.917 92.7744 30.6392 93.8791 30.567C94.6746 30.5188 95.2711 30.1577 95.6025 29.3634C95.6688 29.2189 95.7351 29.1708 95.8898 29.2189C96.398 29.3874 96.9061 29.5559 97.4143 29.7004C97.6353 29.7726 97.6353 29.8929 97.569 30.0855C97.0387 31.4817 96.0886 32.3483 94.7408 32.6372C93.0616 32.9983 91.5592 32.589 90.3661 31.1688C89.8579 30.591 89.5706 29.8929 89.3939 29.0986C89.195 28.1597 89.1729 27.1969 89.3939 26.2821C89.7253 24.9341 90.4323 23.899 91.6034 23.2731C93.0395 22.5028 94.4757 22.5991 95.8677 23.4175C96.5747 23.8508 97.0608 24.5248 97.3701 25.3433C97.7016 26.2099 97.7899 27.1006 97.7458 28.0394C97.7458 28.4245 97.7458 28.4245 97.3922 28.4245C96.4643 28.4245 95.5363 28.4245 94.6304 28.4245ZM93.5477 26.6673C94.1001 26.6673 94.6746 26.6673 95.2269 26.6673C95.4258 26.6673 95.4921 26.571 95.4479 26.3784C95.4037 26.1858 95.3374 25.9933 95.2711 25.8007C94.8513 24.8859 93.8129 24.6693 93.0395 24.8859C92.3325 25.0785 91.8464 25.56 91.6697 26.3543C91.6034 26.6432 91.6476 26.6913 91.9127 26.6913C92.4651 26.6913 93.0174 26.6913 93.5477 26.6913V26.6673Z" fill="white"/>
<path d="M109.921 27.7762C109.921 27.054 109.921 26.3078 109.921 25.5856C109.921 25.3689 109.854 25.2967 109.655 25.2967C109.302 25.2967 108.97 25.2967 108.617 25.2967C108.44 25.2967 108.352 25.2486 108.352 25.0319C108.352 24.4542 108.352 23.8765 108.352 23.2987C108.352 23.0821 108.418 23.0339 108.617 23.0099C108.882 23.0099 109.169 22.9617 109.434 22.8654C109.898 22.6969 110.097 22.2636 110.141 21.734C110.164 21.3007 110.141 20.8915 110.141 20.4582C110.141 20.2656 110.208 20.1934 110.385 20.1934C110.915 20.1934 111.445 20.1934 111.975 20.1934C112.196 20.1934 112.263 20.2897 112.263 20.5304C112.263 21.2285 112.263 21.9266 112.263 22.6247C112.263 22.8815 112.388 23.0099 112.638 23.0099C113.014 23.0099 113.367 23.0099 113.743 23.0099C113.92 23.0099 113.986 23.0821 113.986 23.2747C113.986 23.8524 113.986 24.4542 113.986 25.0319C113.986 25.2245 113.92 25.2967 113.743 25.2967C113.323 25.2967 112.903 25.2967 112.484 25.2967C112.329 25.2967 112.263 25.3689 112.263 25.5374C112.263 26.8614 112.263 28.1613 112.285 29.4853C112.285 29.9186 112.506 30.2075 112.925 30.2556C113.191 30.3037 113.456 30.3037 113.721 30.2556C113.942 30.2556 114.008 30.3037 113.986 30.5204C113.986 31.0259 113.986 31.5555 113.986 32.061C113.986 32.2536 113.92 32.3499 113.743 32.398C112.97 32.5906 112.196 32.6147 111.445 32.3017C110.672 31.9647 110.141 31.3388 110.031 30.4482C109.921 29.5575 109.921 28.6428 109.876 27.728C109.876 27.728 109.898 27.728 109.921 27.728V27.7762Z" fill="white"/>
<path d="M69.706 24.2365C69.8164 24.092 69.9048 23.9476 70.0153 23.8032C70.5898 23.1773 71.3189 22.9366 72.1143 22.9606C72.7109 22.9606 72.6446 22.9125 72.6446 23.5384C72.6446 24.1161 72.6446 24.6698 72.6446 25.2475C72.6446 25.4641 72.5783 25.5364 72.3574 25.4882C71.6061 25.3919 70.877 25.4882 70.3025 26.09C69.949 26.4752 69.7943 26.9325 69.7281 27.4381C69.6839 27.7269 69.6839 28.0158 69.6839 28.3287C69.6839 29.6046 69.6839 30.8563 69.6839 32.1321C69.6839 32.3488 69.6397 32.4451 69.4187 32.4451C68.8001 32.4451 68.1814 32.4451 67.5628 32.4451C67.386 32.4451 67.3418 32.3729 67.3418 32.2044C67.3418 29.2435 67.3418 26.2585 67.3418 23.2976C67.3418 23.1051 67.386 23.0328 67.5849 23.0328C68.1814 23.0328 68.778 23.0328 69.3745 23.0328C69.5513 23.0328 69.6176 23.1051 69.6176 23.2976C69.6176 23.6106 69.6176 23.9235 69.6176 24.2365C69.6397 24.2365 69.6618 24.2365 69.6839 24.2365H69.706Z" fill="white"/>
<path d="M62.5039 27.7521C62.5039 26.2837 62.5039 24.8393 62.5039 23.3709C62.5039 23.0339 62.5039 23.0098 62.8354 23.0098C63.4319 23.0098 64.0064 23.0098 64.603 23.0098C64.7797 23.0098 64.8681 23.058 64.8681 23.2746C64.8681 26.2355 64.8681 29.2205 64.8681 32.1814C64.8681 32.3739 64.8018 32.4221 64.6472 32.4221C64.0285 32.4221 63.3877 32.4221 62.7691 32.4221C62.5702 32.4221 62.526 32.3258 62.526 32.1332C62.526 30.6648 62.526 29.1964 62.526 27.728L62.5039 27.7521Z" fill="white"/>
<path d="M65.1106 19.9526C65.1106 20.8192 64.492 21.4932 63.6965 21.4932C62.879 21.4932 62.2383 20.8192 62.2383 19.9285C62.2383 19.0619 62.9011 18.3398 63.7186 18.3639C64.4478 18.3639 65.1548 19.0619 65.1106 19.9526Z" fill="white"/>
</g>
</g>
</g>
<defs>
<clipPath id="clip0_1_9459">
<rect width="128" height="56" fill="white"/>
</clipPath>
<clipPath id="clip1_1_9459">
<rect width="128" height="56" fill="white"/>
</clipPath>
</defs>
</svg>
