<svg width="128" height="56" viewBox="0 0 128 56" fill="none" xmlns="http://www.w3.org/2000/svg">
<g clip-path="url(#clip0_1_9489)">
<g clip-path="url(#clip1_1_9489)">
<mask id="mask0_1_9489" style="mask-type:luminance" maskUnits="userSpaceOnUse" x="0" y="16" width="128" height="25">
<path d="M127.504 16.092H0.496094V40.8982H127.504V16.092Z" fill="white"/>
</mask>
<g mask="url(#mask0_1_9489)">
<path d="M6.86739 16.092C7.39892 16.2008 7.94462 16.2733 8.46907 16.4184C10.3401 16.9404 11.2968 18.1949 11.3323 20.1744C11.3606 21.9148 11.3606 23.655 11.3393 25.3953C11.3252 26.3307 11.5591 27.15 12.1261 27.8897C12.5725 28.477 12.5442 28.564 11.9913 29.0426C11.5236 29.4487 11.063 29.862 10.6023 30.2681C10.1203 30.6886 9.96444 30.7031 9.51088 30.239C9.10691 29.8185 8.75255 29.3544 8.33442 28.8686C8.08637 29.0861 7.82415 29.3254 7.54774 29.5574C6.16576 30.7176 4.57825 30.9207 2.9128 30.4494C1.61586 30.0868 0.900058 29.1006 0.616574 27.7737C0.588226 27.6286 0.538617 27.4909 0.496094 27.3458C0.496094 26.9398 0.496094 26.5337 0.496094 26.1276C0.531529 26.0189 0.581138 25.9101 0.6024 25.794C0.8221 24.5614 1.41742 23.5534 2.48757 22.9589C3.20337 22.5601 4.00421 22.2846 4.79796 22.096C5.79015 21.8639 6.81778 21.7914 7.84541 21.6464C7.84541 21.1461 7.89501 20.653 7.83123 20.1744C7.74618 19.4929 7.36348 19.0216 6.69021 18.862C5.53502 18.5792 4.36564 19.1593 4.14594 20.2615C4.06799 20.6603 3.82702 20.8053 3.42306 20.7545C2.74979 20.6603 2.06942 20.6095 1.39615 20.5298C1.0418 20.4862 0.878797 20.2977 0.963841 19.8989C1.37489 17.9991 2.59388 16.9187 4.37273 16.4184C4.89717 16.2733 5.43579 16.2008 5.96733 16.092C6.26499 16.092 6.56264 16.092 6.86031 16.092H6.86739ZM7.86666 23.7058C6.98787 23.6695 6.18703 23.7638 5.43579 24.1045C4.25934 24.6484 3.76324 26.1494 4.35148 27.3313C4.557 27.7519 4.883 28.0129 5.33658 28.1072C6.15159 28.2812 6.98787 27.8027 7.46979 26.8817C7.98715 25.8883 7.88084 24.8224 7.87376 23.6985L7.86666 23.7058Z" fill="white"/>
<path d="M39.709 16.092C40.2121 16.1935 40.7153 16.2733 41.2114 16.411C43.047 16.9114 44.0037 18.0498 44.0889 19.9859C44.1668 21.7769 44.1597 23.5679 44.1385 25.359C44.1243 26.3307 44.351 27.1863 44.9534 27.9477C45.3361 28.4335 45.3007 28.5857 44.833 28.9991C44.3582 29.4196 43.8833 29.8402 43.4013 30.2608C42.8982 30.7031 42.7493 30.7176 42.2745 30.2245C41.8706 29.804 41.5162 29.3399 41.1122 28.8613C40.9634 28.9991 40.8075 29.1441 40.6516 29.2964C39.3405 30.5799 37.7671 30.8916 36.045 30.5654C34.5212 30.2753 33.4794 29.0063 33.3448 27.3966C33.1038 24.5034 34.5284 22.6689 37.512 22.1033C38.4192 21.9292 39.3476 21.8422 40.2689 21.7335C40.5736 21.6972 40.7153 21.5884 40.687 21.2622C40.6587 21.0083 40.6729 20.7545 40.6516 20.5007C40.5594 19.4638 40.1059 18.9199 39.2554 18.8184C38.1995 18.688 37.3206 19.1665 36.9947 20.0657C36.7253 20.7981 36.7253 20.8053 35.9741 20.74C35.4284 20.6892 34.8897 20.6095 34.3441 20.5515C33.77 20.4862 33.6425 20.3195 33.7771 19.7611C34.2236 17.9339 35.4284 16.8897 37.1576 16.4184C37.7033 16.2733 38.2633 16.2008 38.8161 16.092C39.1137 16.092 39.4113 16.092 39.709 16.092ZM40.6729 23.6985C39.7586 23.6695 38.9365 23.7565 38.1711 24.1263C37.023 24.6846 36.5198 26.2581 37.1718 27.3676C37.3561 27.6794 37.7317 27.955 38.079 28.071C38.8657 28.3393 39.7161 27.8535 40.2051 26.9615C40.7579 25.9536 40.6799 24.8514 40.6729 23.6913V23.6985Z" fill="white"/>
<path d="M95.4493 16.092C95.6903 16.1428 95.9313 16.2008 96.1722 16.2516C97.7952 16.5996 98.9787 17.5423 99.6311 19.094C100.73 21.7116 100.821 24.3873 99.7304 27.0268C98.1708 30.7974 94.2162 31.2397 91.5443 29.5139C91.2963 29.3544 91.0553 29.1731 90.7435 28.9555C90.7293 29.1949 90.7151 29.3689 90.7151 29.5502C90.7151 31.3267 90.7151 33.1032 90.7151 34.8798C90.7151 35.5904 90.6301 35.6702 89.9498 35.6702C89.5317 35.6702 89.1206 35.6702 88.7024 35.6702C88.3551 35.6702 88.1709 35.5106 88.1779 35.1481C88.1779 35.0828 88.1779 35.0103 88.1779 34.9451C88.1779 29.0572 88.1779 23.1692 88.1779 17.2885C88.1779 16.6359 88.2489 16.5634 88.8937 16.5561C88.9079 16.5561 88.9293 16.5561 88.9433 16.5561C89.8174 16.5513 90.3466 16.9936 90.5308 17.883C90.6372 17.8251 90.7435 17.7888 90.8215 17.7236C91.8136 16.9187 92.9121 16.3676 94.1807 16.1791C94.2445 16.1718 94.3012 16.121 94.3579 16.0993C94.7193 16.0993 95.0878 16.0993 95.4493 16.0993V16.092ZM90.7151 23.2272C90.7151 24.3439 90.7293 25.4606 90.7151 26.5772C90.7151 26.9035 90.7931 27.1428 91.0837 27.2733C91.8562 27.5996 92.6145 28.071 93.4153 28.2159C95.4919 28.5785 96.9447 27.8824 97.5187 25.707C97.9369 24.119 97.9369 22.4876 97.5259 20.8923C97.1857 19.5436 96.3848 18.5937 94.9816 18.3544C93.5003 18.1006 92.1539 18.5067 90.9419 19.3768C90.8073 19.4783 90.7222 19.7466 90.7222 19.9351C90.701 21.0301 90.7151 22.1323 90.7151 23.2344V23.2272Z" fill="white"/>
<path d="M109.086 16.092C109.425 16.1646 109.759 16.2371 110.099 16.3095C111.948 16.7084 113.012 17.9266 113.04 19.8554C113.083 23.0821 113.054 26.3162 113.062 29.5502C113.062 29.9562 112.884 30.123 112.494 30.1448C111.112 30.2173 111.112 30.2245 110.694 28.8759C110.552 28.9774 110.425 29.0644 110.29 29.1587C108.852 30.1738 107.278 30.7539 105.514 30.4566C103.685 30.152 102.58 28.9774 102.345 27.2371C102.083 25.2793 102.891 23.6477 104.542 22.8138C105.649 22.2555 106.831 22.1467 108.037 22.2627C108.872 22.3425 109.709 22.4731 110.609 22.5963C110.595 21.5884 110.773 20.5443 110.417 19.5363C110.155 18.7895 109.56 18.4414 108.83 18.3254C107.271 18.0788 105.762 18.369 104.266 18.7822C104.103 18.8257 103.947 18.8837 103.791 18.9273C103.416 19.0288 103.238 18.8982 103.211 18.4849C103.139 17.2015 103.175 17.0782 104.393 16.7374C105.252 16.4981 106.145 16.3821 107.023 16.208C107.186 16.1791 107.342 16.1355 107.505 16.0993C108.037 16.0993 108.568 16.0993 109.1 16.0993L109.086 16.092ZM110.616 25.7796C110.616 25.4388 110.602 25.1052 110.616 24.7644C110.638 24.4454 110.517 24.3076 110.205 24.2786C109.369 24.1988 108.525 24.0466 107.69 24.0394C107.144 24.0394 106.562 24.1698 106.052 24.3728C105.138 24.7354 104.706 25.7796 104.925 26.8673C105.131 27.8969 105.797 28.4553 106.853 28.4842C107.803 28.5133 108.674 28.2087 109.532 27.8316C110.304 27.4909 110.822 27.0268 110.616 26.0768C110.595 25.9826 110.616 25.8738 110.616 25.7723V25.7796Z" fill="white"/>
<path d="M17.6253 18.5858C18.2277 17.1066 19.2554 16.2799 20.8641 16.2655C22.5012 16.2509 23.4651 17.179 24.0958 18.6655C24.2163 18.448 24.2872 18.303 24.3651 18.1652C25.4423 16.1349 28.2063 15.6128 29.9285 17.1138C30.6585 17.7447 31.0128 18.5712 31.027 19.5212C31.0624 21.4499 31.0554 23.3788 31.0554 25.3004C31.0554 26.7724 31.0554 28.2444 31.0554 29.7163C31.0554 30.4124 30.9774 30.485 30.3182 30.4922C29.6876 30.4922 29.0568 30.4922 28.426 30.4922C27.7811 30.4922 27.6748 30.3761 27.6677 29.7309C27.6677 26.9754 27.6677 24.2199 27.6677 21.4645C27.6677 21.3484 27.6677 21.2252 27.6677 21.1092C27.6252 20.1738 27.2141 19.63 26.4912 19.5357C25.5912 19.4124 24.8187 19.8475 24.5848 20.6958C24.443 21.2252 24.3793 21.7908 24.3793 22.3491C24.358 24.8 24.3722 27.2509 24.3651 29.709C24.3651 30.4197 24.2871 30.4994 23.5997 30.4994C22.9548 30.4994 22.3028 30.4994 21.6579 30.4994C21.098 30.4994 20.9917 30.3907 20.9917 29.8105C20.9917 27.2582 21.0058 24.7057 20.9846 22.1533C20.9846 21.6023 20.9137 21.0367 20.7861 20.5001C20.6444 19.8838 20.2049 19.5357 19.5671 19.4921C18.9223 19.4487 18.3269 19.6227 18.0789 20.2608C17.8662 20.8119 17.7174 21.4282 17.7103 22.0229C17.6678 24.5607 17.6891 27.0986 17.682 29.6292C17.682 30.4124 17.5969 30.4994 16.8245 30.4994C16.1937 30.4994 15.5629 30.485 14.9322 30.4994C14.4999 30.5067 14.2802 30.3326 14.2873 29.8758C14.2873 25.6339 14.2873 21.3848 14.2873 17.1428C14.2873 16.7149 14.4857 16.5264 14.8967 16.5337C15.5771 16.5337 16.2575 16.5337 16.9379 16.5337C17.3206 16.5337 17.519 16.7223 17.5048 17.1283C17.4906 17.5996 17.5048 18.0637 17.5048 18.535C17.5473 18.5495 17.5827 18.5712 17.6253 18.5858Z" fill="white"/>
<path d="M74.3645 18.7763C74.5276 18.4645 74.6834 18.1527 74.8607 17.8554C75.6827 16.456 76.9513 16.1296 78.4254 16.3326C79.7366 16.5139 80.7287 17.4421 81.0264 18.8488C81.1824 19.5884 81.2674 20.3497 81.2744 21.1112C81.3028 24.0044 81.2886 26.8976 81.2886 29.7835C81.2886 30.3708 81.161 30.5014 80.5941 30.5014C79.9279 30.5014 79.2688 30.5014 78.6026 30.5014C78.0073 30.5014 77.901 30.3999 77.901 29.7908C77.901 27.4051 77.9152 25.0196 77.901 22.6339C77.901 21.9958 77.8584 21.3504 77.7451 20.7196C77.6033 19.9292 77.1782 19.5449 76.512 19.4507C75.8882 19.3636 75.1866 19.6899 74.9386 20.3643C74.6764 21.0821 74.4779 21.8581 74.4567 22.6122C74.3929 24.9615 74.4354 27.3109 74.4283 29.6603C74.4283 30.4217 74.3575 30.4869 73.5921 30.4869C72.9471 30.4869 72.2951 30.4869 71.6502 30.4869C71.232 30.4869 71.0477 30.3057 71.0549 29.8778C71.0549 25.6358 71.0549 21.3867 71.0549 17.1448C71.0549 16.7097 71.2462 16.5284 71.6502 16.5284C72.3163 16.5284 72.9755 16.5284 73.6417 16.5284C74.081 16.5284 74.2653 16.7315 74.2441 17.1882C74.2228 17.7031 74.2441 18.2252 74.2441 18.74C74.2795 18.7473 74.3221 18.7545 74.3575 18.769L74.3645 18.7763Z" fill="white"/>
<path d="M57.7168 23.5248C57.8585 22.0311 58.0711 20.6027 58.7373 19.283C59.7154 17.3397 61.2533 16.2809 63.429 16.2737C65.5906 16.2737 67.2135 17.2526 68.156 19.2177C69.4672 21.9441 69.538 24.7575 68.2907 27.5347C67.3127 29.7101 65.3 30.9283 63.1667 30.7687C60.8422 30.5947 59.113 29.2097 58.3688 26.7806C58.0499 25.7292 57.9294 24.6125 57.7168 23.5248ZM65.5906 23.6263C65.5906 23.6263 65.5268 23.6191 65.4914 23.6119C65.4914 23.3435 65.5268 23.068 65.4914 22.7997C65.3496 21.8353 65.2362 20.8637 65.0094 19.921C64.8606 19.3047 64.3574 18.9711 63.7196 18.9059C63.0321 18.8334 62.4651 19.0509 62.1108 19.6745C61.9337 19.9935 61.7352 20.3488 61.7139 20.6969C61.6288 22.1543 61.5368 23.6263 61.5864 25.0839C61.6146 25.8162 61.8273 26.5921 62.1462 27.2592C62.6777 28.3686 64.1022 28.4049 64.7968 27.3825C64.981 27.1069 65.1441 26.7878 65.2007 26.4688C65.3638 25.5262 65.47 24.569 65.5976 23.6263H65.5906Z" fill="white"/>
<path d="M33.196 40.8979C25.3081 40.7747 18.3344 38.1788 12.3741 32.8637C12.3387 32.8274 12.282 32.8057 12.2678 32.7622C12.1899 32.5809 12.119 32.3924 12.041 32.2039C12.2324 32.2039 12.4592 32.1458 12.6151 32.2184C13.2105 32.5084 13.7845 32.8565 14.3727 33.1682C18.4336 35.2856 22.7284 36.6487 27.2287 37.3739C30.0707 37.8307 32.9338 37.9903 35.797 37.838C40.4887 37.5842 45.0385 36.5691 49.3972 34.7562C49.6593 34.6475 49.9216 34.4879 50.1909 34.4734C50.3964 34.4662 50.6728 34.6039 50.8004 34.7707C50.8783 34.8722 50.7862 35.1768 50.694 35.3363C50.5948 35.4959 50.4035 35.6046 50.2405 35.7206C47.1505 37.9177 43.7062 39.2737 40.0422 40.0931C38.1145 40.5281 36.1726 40.8182 34.1882 40.8254C33.8551 40.8254 33.5291 40.869 33.196 40.8907V40.8979Z" fill="white"/>
<path d="M52.005 19.2749C50.6301 19.2749 49.3899 19.2749 48.1496 19.2749C47.2567 19.2749 47.2212 19.2386 47.2212 18.3321C47.2212 17.9116 47.2212 17.4838 47.2212 17.0633C47.2212 16.7007 47.3984 16.5049 47.774 16.5122C50.4458 16.5122 53.1177 16.5122 55.7895 16.5122C56.1652 16.5122 56.3069 16.6862 56.3352 17.0633C56.4345 18.2017 56.1934 19.1806 55.4848 20.1232C54.195 21.8417 53.0326 23.6546 51.8137 25.4238C51.7216 25.5616 51.6294 25.6994 51.5018 25.9024C52.083 25.9531 52.6145 25.9894 53.146 26.0474C54.1595 26.149 55.1233 26.439 56.0376 26.9176C56.4061 27.1133 56.5903 27.3961 56.5975 27.8022C56.6116 28.3968 56.6187 28.9841 56.5975 29.5787C56.5833 30.0791 56.321 30.2386 55.8675 30.0283C53.0681 28.7013 50.2686 28.6868 47.4693 30.0428C47.0157 30.2604 46.7819 30.1008 46.7747 29.5787C46.7605 28.9551 46.7109 28.317 46.7889 27.7006C46.8527 27.2148 46.9802 26.6927 47.2425 26.2939C48.6811 24.1186 50.1624 21.9795 51.6364 19.8332C51.7357 19.6809 51.8349 19.5286 52.005 19.2749Z" fill="white"/>
<path d="M121.281 27.6572C121.394 27.3599 121.464 27.1786 121.529 26.9901C122.62 23.7488 123.712 20.5075 124.81 17.2662C125.051 16.5557 125.101 16.5194 125.837 16.5121C126.234 16.5121 126.631 16.5121 127.028 16.5121C127.44 16.5049 127.553 16.7224 127.467 17.0994C127.453 17.1647 127.425 17.23 127.404 17.288C125.469 22.3711 123.548 27.4614 121.592 32.5372C121.315 33.255 120.933 33.944 120.494 34.5675C119.516 35.9452 117.382 36.4673 115.873 35.7422C115.731 35.6769 115.647 35.4811 115.548 35.3434C115.512 35.2926 115.526 35.2128 115.526 35.1476C115.505 33.5597 115.476 33.8206 116.737 33.9149C118.049 34.0091 118.737 33.5814 119.26 32.3341C119.804 31.0386 119.82 29.7479 119.31 28.4621C117.851 24.7857 116.398 21.1021 114.944 17.4258C114.64 16.6572 114.725 16.5266 115.519 16.5266C115.902 16.5266 116.284 16.5484 116.66 16.5266C117.156 16.4904 117.411 16.7079 117.574 17.1792C118.41 19.6011 119.274 22.0085 120.126 24.4231C120.494 25.4673 120.862 26.5115 121.281 27.6717V27.6572Z" fill="white"/>
<path d="M50.5654 32.6612C49.4811 32.7627 48.4747 32.8715 47.4754 32.9513C47.277 32.9658 47.0715 32.9005 46.873 32.8715C47.0077 32.6974 47.1069 32.4799 47.277 32.364C48.2338 31.7186 49.3252 31.4286 50.4521 31.2763C51.5931 31.1239 52.727 31.1384 53.8468 31.4503C54.5412 31.6461 54.7468 31.8853 54.6901 32.6104C54.5058 34.8365 53.8113 36.8596 52.3089 38.5419C52.2451 38.6144 52.1813 38.7087 52.0962 38.7521C51.9049 38.8537 51.6993 38.9407 51.508 39.0277C51.5293 38.8247 51.5151 38.6144 51.5718 38.4187C51.9545 37.1786 52.3585 35.9532 52.727 34.7061C52.812 34.4233 52.7837 34.1042 52.8049 33.8069C52.8333 33.3283 52.5924 33.0166 52.16 32.915C51.6143 32.7917 51.0545 32.7338 50.5725 32.654L50.5654 32.6612Z" fill="white"/>
</g>
</g>
</g>
<defs>
<clipPath id="clip0_1_9489">
<rect width="128" height="56" fill="white"/>
</clipPath>
<clipPath id="clip1_1_9489">
<rect width="128" height="56" fill="white"/>
</clipPath>
</defs>
</svg>
