<svg width="128" height="56" viewBox="0 0 128 56" fill="none" xmlns="http://www.w3.org/2000/svg">
<g clip-path="url(#clip0_1_9477)">
<g clip-path="url(#clip1_1_9477)">
<g clip-path="url(#clip2_1_9477)">
<path d="M127.504 0.217041H0.496338V55.7829H127.504V0.217041Z" fill="white" fill-opacity="0.01"/>
<mask id="mask0_1_9477" style="mask-type:luminance" maskUnits="userSpaceOnUse" x="18" y="16" width="92" height="28">
<path d="M109.644 16.092H18.3574V43.875H109.644V16.092Z" fill="white"/>
</mask>
<g mask="url(#mask0_1_9477)">
<path fill-rule="evenodd" clip-rule="evenodd" d="M74.9798 37.7665C69.6803 41.6896 61.999 43.7828 55.3855 43.7828C46.1124 43.7828 37.7641 40.338 31.4482 34.6088C30.9521 34.1583 31.3967 33.5443 31.9922 33.8951C38.8081 37.8781 47.2358 40.2743 55.9413 40.2743C61.8125 40.2743 68.2711 39.0543 74.2097 36.5226C75.1068 36.1398 75.8572 37.1126 74.9798 37.7665Z" fill="white"/>
<path fill-rule="evenodd" clip-rule="evenodd" d="M77.1838 35.237C76.5089 34.3678 72.7058 34.8263 70.9989 35.0296C70.4789 35.0935 70.3995 34.6389 70.8679 34.312C73.8968 32.171 78.8669 32.789 79.4464 33.5067C80.0259 34.2283 79.2955 39.2319 76.4493 41.62C76.0126 41.9868 75.5958 41.7915 75.7903 41.3051C76.4294 39.7024 77.8625 36.1102 77.1838 35.237Z" fill="white"/>
<path fill-rule="evenodd" clip-rule="evenodd" d="M71.1178 19.196V17.1149C71.1178 16.7999 71.3559 16.5886 71.6418 16.5886H80.9189C81.2167 16.5886 81.4549 16.8038 81.4549 17.1149V18.897C81.4508 19.196 81.2008 19.5868 80.7563 20.2048L75.9489 27.0981C77.7353 27.0543 79.6208 27.3215 81.2405 28.2385C81.6057 28.4458 81.705 28.7488 81.7327 29.0478V31.2685C81.7327 31.5716 81.3992 31.9264 81.05 31.743C78.1958 30.24 74.4047 30.0764 71.2488 31.7589C70.9273 31.9344 70.5898 31.5835 70.5898 31.2805V29.1714C70.5898 28.8326 70.5938 28.2544 70.9311 27.7401L76.5007 19.7184H71.6536C71.3559 19.7184 71.1178 19.5071 71.1178 19.196ZM37.2763 32.1815H34.4537C34.1838 32.1616 33.9695 31.9583 33.9496 31.6991V17.1508C33.9496 16.8597 34.1918 16.6284 34.4934 16.6284H37.1253C37.3993 16.6403 37.6176 16.8518 37.6374 17.1148V19.0167H37.6891C38.3758 17.1787 39.666 16.3216 41.4047 16.3216C43.1711 16.3216 44.2748 17.1787 45.0688 19.0167C45.7515 17.1787 47.3036 16.3216 48.967 16.3216C50.1499 16.3216 51.4441 16.812 52.234 17.9124C53.1271 19.1363 52.9445 20.9145 52.9445 22.4734L52.9406 31.6553C52.9406 31.9464 52.6985 32.1816 52.3967 32.1816H49.5782C49.2964 32.1617 49.0701 31.9345 49.0701 31.6553V23.9445C49.0701 23.3305 49.1258 21.7995 48.9907 21.2174C48.7804 20.2407 48.1492 19.9655 47.3314 19.9655C46.6486 19.9655 45.9341 20.424 45.6443 21.1577C45.3545 21.8913 45.3823 23.1192 45.3823 23.9445V31.6552C45.3823 31.9463 45.1401 32.1815 44.8385 32.1815H42.02C41.7341 32.1616 41.5119 31.9344 41.5119 31.6552L41.5079 23.9445C41.5079 22.3218 41.7738 19.9337 39.7692 19.9337C37.7407 19.9337 37.82 22.262 37.82 23.9445V31.6552C37.82 31.9463 37.5779 32.1815 37.2763 32.1815ZM89.4419 16.3215C93.6299 16.3215 95.8966 19.9337 95.8966 24.5266C95.8966 28.964 93.3918 32.4846 89.4418 32.4846C85.3292 32.4846 83.0903 28.8723 83.0903 24.3711C83.0903 19.842 85.357 16.3215 89.4419 16.3215ZM89.4657 19.2918C87.3855 19.2918 87.2546 22.1385 87.2546 23.9126C87.2546 25.6908 87.2268 29.4863 89.4419 29.4863C91.6292 29.4863 91.7323 26.4244 91.7323 24.5584C91.7323 23.3305 91.6807 21.8633 91.3116 20.6992C90.994 19.6864 90.3628 19.2918 89.4657 19.2918ZM101.327 32.1815H98.5166C98.2348 32.1616 98.0084 31.9344 98.0084 31.6552L98.0045 17.1029C98.0282 16.8358 98.2626 16.6284 98.5483 16.6284H101.164C101.41 16.6403 101.613 16.808 101.668 17.0351V19.2598H101.72C102.511 17.2704 103.618 16.3215 105.567 16.3215C106.833 16.3215 108.068 16.7799 108.862 18.0358C109.6 19.2 109.6 21.1577 109.6 22.5651V31.723C109.568 31.9782 109.334 32.1815 109.056 32.1815H106.225C105.968 32.1616 105.753 31.9702 105.725 31.723V23.8209C105.725 22.2301 105.908 19.9016 103.959 19.9016C103.273 19.9016 102.641 20.3642 102.328 21.0659C101.93 21.9551 101.878 22.8402 101.878 23.821V31.6552C101.874 31.9463 101.628 32.1815 101.327 32.1815ZM63.7222 25.2323C63.7222 26.3367 63.75 27.2577 63.1943 28.2384C62.7458 29.0359 62.0313 29.5261 61.2412 29.5261C60.1575 29.5261 59.5224 28.697 59.5224 27.473C59.5224 25.0569 61.6779 24.6183 63.7222 24.6183V25.2323ZM66.5685 32.1417C66.382 32.3091 66.1121 32.3211 65.9016 32.2095C64.9647 31.428 64.7941 31.0652 64.282 30.3196C62.7338 31.9064 61.6343 32.3809 59.6295 32.3809C57.2516 32.3809 55.4057 30.9096 55.4057 27.9634C55.4057 25.6629 56.6442 24.0961 58.4147 23.3305C59.9471 22.6527 62.0867 22.5331 63.7224 22.3457V21.979C63.7224 21.3052 63.7738 20.5077 63.3768 19.9256C63.0355 19.4034 62.3765 19.1881 61.793 19.1881C60.7171 19.1881 59.7605 19.7422 59.5263 20.8905C59.4786 21.1457 59.2921 21.3968 59.0341 21.4089L56.2989 21.1138C56.0687 21.062 55.8107 20.8745 55.8781 20.5197C56.5054 17.1867 59.5065 16.1819 62.1901 16.1819C63.5636 16.1819 65.3579 16.5487 66.4416 17.5934C67.815 18.8811 67.6841 20.5994 67.6841 22.4694V26.8869C67.6841 28.2146 68.2319 28.7965 68.748 29.5142C68.9267 29.7694 68.9663 30.0764 68.7361 30.2677C68.1605 30.7502 67.1363 31.6473 66.5726 32.1496L66.5685 32.1417ZM26.7208 25.2323C26.7208 26.3367 26.7486 27.2577 26.1927 28.2384C25.7443 29.0359 25.0337 29.5261 24.2397 29.5261C23.1561 29.5261 22.5248 28.697 22.5248 27.473C22.5248 25.0569 24.6804 24.6183 26.7208 24.6183V25.2323ZM29.567 32.1417C29.3805 32.3091 29.1106 32.3211 28.9002 32.2095C27.9633 31.428 27.7965 31.0652 27.2806 30.3196C25.7323 31.9064 24.6368 32.3809 22.628 32.3809C20.2542 32.3809 18.4043 30.9096 18.4043 27.9634C18.4043 25.6629 19.6469 24.0961 21.4133 23.3305C22.9457 22.6527 25.0853 22.5331 26.7208 22.3457V21.979C26.7208 21.3052 26.7724 20.5077 26.3794 19.9256C26.034 19.4034 25.3751 19.1881 24.7955 19.1881C23.7198 19.1881 22.7591 19.7422 22.5248 20.8905C22.4772 21.1457 22.2906 21.3968 22.0365 21.4089L19.2975 21.1138C19.0672 21.062 18.8132 20.8745 18.8767 20.5197C19.5079 17.1867 22.5051 16.1819 25.1885 16.1819C26.562 16.1819 28.3563 16.5487 29.4401 17.5934C30.8134 18.8811 30.6826 20.5994 30.6826 22.4694V26.8869C30.6826 28.2146 31.2304 28.7965 31.7465 29.5142C31.9291 29.7694 31.9687 30.0764 31.7385 30.2677C31.1628 30.7502 30.1387 31.6473 29.575 32.1496L29.567 32.1417Z" fill="white"/>
</g>
</g>
</g>
</g>
<defs>
<clipPath id="clip0_1_9477">
<rect width="128" height="56" fill="white"/>
</clipPath>
<clipPath id="clip1_1_9477">
<rect width="128" height="56" fill="white"/>
</clipPath>
<clipPath id="clip2_1_9477">
<rect width="128" height="55.5659" fill="white" transform="translate(0 0.217041)"/>
</clipPath>
</defs>
</svg>
