<svg width="128" height="56" viewBox="0 0 128 56" fill="none" xmlns="http://www.w3.org/2000/svg">
<g clip-path="url(#clip0_1_9531)">
<g clip-path="url(#clip1_1_9531)">
<path d="M34.7988 22.3737C37.082 22.3737 39.2882 22.2967 41.4873 22.4087C42.6218 22.4648 43.5253 23.1791 43.8544 24.3347C44.1836 25.5043 43.9665 26.5759 42.993 27.4093C42.8669 27.5213 42.7409 27.6334 42.5518 27.8084C42.8389 27.9765 43.056 28.1306 43.2942 28.2497C45.08 29.1112 44.9609 31.9406 43.9104 32.732C43.2381 33.2362 42.3697 33.6984 41.5572 33.7685C39.4842 33.9435 37.3902 33.8876 35.3031 33.9366C34.7218 33.9506 34.8129 33.5654 34.8129 33.2222C34.8129 30.4067 34.8129 27.5844 34.8129 24.769C34.8129 23.9636 34.8129 23.1582 34.8129 22.3668L34.7988 22.3737ZM39.1971 31.7794C39.1971 31.7794 39.1971 31.8285 39.2041 31.8565C39.9255 31.7725 40.6608 31.7654 41.3541 31.5834C42.1595 31.3733 42.5378 30.4908 42.0965 29.8605C41.8514 29.5103 41.3752 29.1531 40.9689 29.1112C39.8484 28.9921 38.7138 29.0201 37.5793 29.0271C37.4392 29.0271 37.2011 29.2722 37.1731 29.4333C36.7669 31.4363 37.054 31.7794 39.043 31.7794C39.092 31.7794 39.141 31.7794 39.1971 31.7794ZM38.7979 27.0801C39.3722 27.0311 39.9605 27.0381 40.5207 26.912C41.1511 26.7719 41.6133 26.3797 41.5923 25.6444C41.5712 24.923 41.1441 24.5238 40.4648 24.4468C39.7153 24.3628 38.966 24.3207 38.2096 24.3207C37.1241 24.3207 37.1241 24.3417 37.1381 25.4063C37.152 26.4988 37.7053 27.0567 38.7979 27.0801Z" fill="white"/>
<path d="M54.6671 22.2259C55.3605 22.2259 56.0118 22.1909 56.6562 22.2468C56.8593 22.2608 57.0904 22.471 57.2234 22.6531C58.8342 24.7471 60.4311 26.8482 62.0278 28.9493C62.1399 29.0963 62.273 29.2363 62.5531 29.5656V22.2749H64.8923V33.9288C64.3249 33.9288 63.7717 33.9847 63.2325 33.9077C62.9593 33.8657 62.6651 33.6276 62.483 33.3964C60.7602 31.1693 59.0653 28.9212 57.3565 26.6801C57.3145 26.6241 57.2445 26.589 57.0274 26.4209V33.8867H54.6602V22.2259H54.6671Z" fill="white"/>
<path d="M83.332 22.2462C84.0184 22.2462 84.6347 22.1692 85.2159 22.2743C85.5521 22.3373 85.8883 22.6595 86.1124 22.9536C87.6952 25.0056 89.25 27.0786 90.8118 29.1447C90.8678 29.2217 90.9378 29.2918 91.1269 29.5159V22.2883H93.5922V33.9211C92.9338 33.9211 92.3105 33.9492 91.6942 33.9001C91.5192 33.8861 91.337 33.662 91.2039 33.4939C89.5021 31.2808 87.8142 29.0536 86.1264 26.8336C86.0424 26.7215 85.9933 26.5744 85.9303 26.4484C85.8532 26.4903 85.7762 26.5394 85.6992 26.5814V33.8861H83.332V22.2462Z" fill="white"/>
<path d="M118.988 26.9396V29.1107C117.44 29.1107 115.942 29.1107 114.444 29.1107C113.462 29.1107 113.462 29.1107 113.462 30.1192C113.462 31.2117 114.004 31.758 115.088 31.758C116.643 31.758 118.197 31.758 119.794 31.758V33.8801H111.082V22.2893H119.759V24.4043C119.086 24.4043 118.415 24.4043 117.749 24.4043C116.544 24.4043 115.333 24.4324 114.128 24.3903C113.582 24.3694 113.449 24.5654 113.449 25.0837C113.449 26.9396 113.435 26.9396 115.291 26.9396C116.517 26.9396 117.742 26.9396 118.988 26.9396Z" fill="white"/>
<path d="M80.2304 33.9019C79.425 33.9019 78.7247 33.923 78.0243 33.8809C77.8632 33.874 77.6461 33.6708 77.5691 33.5028C77.31 32.9564 77.0929 32.3962 76.8897 31.8289C76.7427 31.4227 76.5396 31.2266 76.0633 31.2336C74.7537 31.2617 73.4441 31.2617 72.1344 31.2336C71.6721 31.2196 71.441 31.4017 71.294 31.8009C71.0838 32.3682 70.8877 32.9424 70.6076 33.4748C70.5025 33.6778 70.1874 33.86 69.9563 33.8809C69.3399 33.937 68.7096 33.9019 67.9883 33.9019C68.5345 32.5783 69.0388 31.3316 69.5641 30.092C70.6076 27.6408 71.6791 25.1966 72.7017 22.7384C72.8977 22.2761 73.1008 22.094 73.6261 22.094C75.2089 22.101 75.2159 22.0731 75.8602 23.5788C77.268 26.8634 78.6616 30.1481 80.0623 33.4327C80.1184 33.5658 80.1604 33.7059 80.2234 33.909L80.2304 33.9019ZM74.2144 25.2806C74.1304 25.2806 74.0463 25.2737 73.9692 25.2666C73.472 26.4993 72.9818 27.7318 72.4495 29.0555H75.7412C75.2019 27.7179 74.7046 26.4993 74.2144 25.2806Z" fill="white"/>
<path d="M107.669 23.8085C107.186 24.3688 106.703 24.9361 106.157 25.5664C105.036 24.6279 103.797 23.9276 102.361 24.3758C101.619 24.6069 100.87 25.1461 100.379 25.7484C99.2024 27.1912 99.4338 29.5023 100.744 30.882C102.081 32.2828 103.734 32.1917 106.276 30.5459C106.76 31.0361 107.25 31.5264 107.733 32.0166C105.8 34.6079 101.562 34.839 98.9503 32.5419C96.5271 30.4128 96.4921 26.0216 98.8243 23.7105C101.275 21.2872 105.926 21.6654 107.663 23.8155L107.669 23.8085Z" fill="white"/>
<path d="M26.3024 32.3247C24.1314 34.4888 21.9183 36.6879 19.7331 38.8589C17.499 36.6178 15.2719 34.3837 13.0098 32.1076C13.7451 31.4352 14.5645 30.6999 15.461 29.8805C16.7286 31.2041 18.1153 32.6468 19.579 34.1666C21.0568 32.6118 22.4365 31.162 23.8232 29.7053C24.7266 30.6579 25.4901 31.4562 26.3095 32.3177L26.3024 32.3247Z" fill="white"/>
<path d="M19.6224 21.6104C18.1026 23.1372 16.7089 24.5449 15.2942 25.9736C14.5168 25.1612 13.7815 24.3768 13.0391 23.5995C15.2242 21.4634 17.4723 19.2573 19.6854 17.0862C21.7935 19.1873 24.0346 21.4073 26.2897 23.6555C25.5473 24.3908 24.77 25.1682 23.9365 25.9947C22.5288 24.5589 21.1282 23.1372 19.6224 21.6104Z" fill="white"/>
<path d="M48.1621 22.2678H50.4243V33.8306H48.1621V22.2678Z" fill="white"/>
<path d="M21.9059 28.0598C21.2476 28.7182 20.4772 29.5025 19.6998 30.28C18.9084 29.4395 18.1451 28.6272 17.3887 27.8287C18.054 27.1914 18.8594 26.421 19.6648 25.6506C20.3371 26.372 21.0935 27.1914 21.9059 28.0669V28.0598Z" fill="white"/>
<path d="M28.3143 25.5189C29.0987 26.3243 29.8621 27.1157 30.6045 27.8792C29.8481 28.6635 29.0847 29.4479 28.3633 30.1903C27.5719 29.3989 26.7806 28.6145 25.9961 27.8231C26.6965 27.1297 27.4738 26.3524 28.3213 25.512L28.3143 25.5189Z" fill="white"/>
<path d="M10.9931 25.5452C11.7775 26.3575 12.5409 27.1419 13.3043 27.9333C12.576 28.6828 11.8125 29.4671 11.0352 30.2725C10.2298 29.4461 9.46637 28.6617 8.66797 27.8353C9.41734 27.0999 10.2017 26.3295 10.9931 25.5452Z" fill="white"/>
</g>
</g>
<defs>
<clipPath id="clip0_1_9531">
<rect width="128" height="56" fill="white"/>
</clipPath>
<clipPath id="clip1_1_9531">
<rect width="128" height="56" fill="white"/>
</clipPath>
</defs>
</svg>
