<svg width="128" height="56" viewBox="0 0 128 56" fill="none" xmlns="http://www.w3.org/2000/svg">
<g clip-path="url(#clip0_1_9547)">
<g clip-path="url(#clip1_1_9547)">
<mask id="mask0_1_9547" style="mask-type:luminance" maskUnits="userSpaceOnUse" x="2" y="14" width="124" height="28">
<path d="M125.517 14.1077H2.48047V41.8906H125.517V14.1077Z" fill="white"/>
</mask>
<g mask="url(#mask0_1_9547)">
<path d="M16.0036 14.1077C16.0168 14.9891 16.0168 15.8704 16.0693 16.7518C16.0957 17.1727 15.9247 17.2517 15.5432 17.2517C12.728 17.2517 9.91293 17.2517 7.09781 17.2517C5.55869 17.2517 5.54554 17.2648 5.54554 18.7908C5.54554 25.105 5.54554 31.4062 5.54554 37.7205C5.54554 38.7335 5.63762 38.8387 6.62424 38.8387C13.1622 38.8387 19.7001 38.8387 26.2249 38.8387C27.1326 38.8387 27.2247 38.7466 27.2247 37.839C27.2247 31.2878 27.2247 24.7367 27.2247 18.1988C27.2247 17.3306 27.1326 17.2648 26.2512 17.2385C25.7645 17.2253 25.133 17.4622 24.8042 17.1201C24.5148 16.8176 24.7384 16.1993 24.7121 15.7257C24.6857 15.1863 24.6857 14.6471 24.6726 14.1209H27.2115C27.3036 14.3313 27.5272 14.2655 27.6851 14.3181C29.2505 14.8049 30.316 16.1203 30.316 17.7515C30.3291 24.6184 30.3423 31.4852 30.316 38.352C30.316 40.3515 28.7375 41.9038 26.7379 41.9038C19.8449 41.9301 12.9517 41.9301 6.05857 41.9038C4.03273 41.9038 2.48047 40.312 2.48047 38.2994C2.48047 31.4457 2.48047 24.6184 2.48047 17.791C2.48047 16.1993 3.44077 14.897 4.94042 14.3576C5.09828 14.2918 5.30875 14.3313 5.38769 14.1077H16.0036Z" fill="white"/>
<path d="M23.3576 14.1071C23.3576 14.1071 23.2787 14.1334 23.2523 14.1466C22.6999 14.1466 22.1343 14.1598 21.5686 14.1729C21.5159 14.1466 21.4765 14.1203 21.4238 14.094C22.0685 14.094 22.7131 14.094 23.3576 14.094V14.1071Z" fill="white"/>
<path d="M46.036 21.987C46.036 22.066 46.036 22.1449 46.036 22.2239C46.036 23.0658 46.036 23.0921 45.2204 23.1052C44.6416 23.1052 44.6021 23.4735 44.6021 23.9076C44.6021 27.3937 44.6021 30.8798 44.6153 34.3526C44.6153 34.9314 44.4442 35.0761 43.918 35.0235C43.5366 34.984 43.1551 35.0235 42.7736 35.0235C42.6552 35.0235 42.4447 35.0235 42.4316 34.9709C42.2606 34.2605 41.9054 34.7998 41.6818 34.8919C39.156 35.9575 36.4725 34.5894 35.8936 31.9189C35.6437 30.7613 35.6569 29.6168 36.0252 28.4724C36.8144 26.0256 39.3402 24.7102 41.787 25.5257C42.2869 25.6967 42.3395 25.5784 42.3264 25.1179C42.3132 24.4602 42.2606 23.8024 42.3922 23.1447C42.7078 21.5792 44.1812 20.5795 45.7597 20.8295C45.9702 20.8689 46.0229 20.9478 46.0229 21.1451C46.0229 21.4214 46.0229 21.7108 46.0229 21.987H46.036ZM42.3527 30.2878C42.3527 29.5905 42.3264 28.8934 42.3527 28.183C42.3658 27.8278 42.2211 27.6436 41.9317 27.4726C40.4979 26.6964 38.6693 27.4858 38.2352 29.0906C38.0511 29.7879 38.0247 30.5113 38.1694 31.2349C38.5246 32.9713 40.3531 33.8395 41.9449 33.0371C42.2211 32.8924 42.3658 32.7214 42.3658 32.3925C42.3395 31.6953 42.3658 30.9981 42.3658 30.2878H42.3527Z" fill="white"/>
<path d="M95.4453 27.8675C95.4453 25.7232 95.4585 23.5922 95.4453 21.4479C95.4453 20.9875 95.5769 20.856 96.0242 20.8824C96.4978 20.9218 96.9845 20.9087 97.4712 20.8824C97.8395 20.8692 97.9579 20.9875 97.9579 21.3559C97.9316 22.6188 97.9579 23.8816 97.9579 25.1314C97.9579 25.3944 97.9316 25.6181 98.3394 25.4734C101.68 24.2894 104.983 26.7888 104.549 31.0247C104.351 32.9058 103.562 34.366 101.615 34.9185C100.497 35.2342 99.3922 35.1553 98.3394 34.616C98.1815 34.537 97.9843 34.3002 97.9711 34.7212C97.9711 34.9317 97.7869 34.8922 97.6553 34.9053C95.7348 35.1027 95.7217 35.1027 95.7085 33.1821C95.7085 31.4061 95.7085 29.6171 95.7085 27.8412C95.6427 27.8412 95.5769 27.8412 95.498 27.8412L95.4453 27.8675ZM102.193 30.2617C102.193 29.775 102.155 29.3014 101.997 28.841C101.497 27.3282 99.668 26.631 98.3131 27.4071C98.0764 27.5519 97.9185 27.6965 97.9185 28.0123C97.9316 29.4461 97.9316 30.8932 97.9185 32.3271C97.9185 32.6033 98.0237 32.7743 98.2736 32.8926C98.6156 33.0505 98.9709 33.1953 99.3654 33.2084C101.194 33.2479 102.18 32.2218 102.193 30.2617Z" fill="white"/>
<path d="M70.7398 29.3933C69.911 31.2481 69.1086 33.0109 68.3456 34.7736C68.2009 35.1025 68.0167 35.2077 67.6615 35.2077C67.359 35.2077 67.2406 35.0761 67.1485 34.8262C66.0566 31.8664 64.9517 28.8934 63.8467 25.9336C63.7019 25.5389 63.7809 25.4469 64.1755 25.4732C64.6622 25.4994 65.1358 25.4994 65.6225 25.4732C65.9778 25.4469 66.0961 25.6047 66.2014 25.9205C66.7539 27.6042 67.3327 29.288 67.9115 30.985C68.1614 30.9061 68.1614 30.6694 68.2404 30.4983C68.8849 28.9723 69.5164 27.4332 70.1347 25.8942C70.2399 25.6178 70.3583 25.4732 70.6872 25.4732C71.0292 25.4732 71.1739 25.5915 71.3054 25.8942C71.9237 27.4069 72.5815 28.9197 73.2128 30.4325C73.2918 30.6299 73.3971 30.8271 73.5023 31.064C73.7391 30.7877 73.7785 30.4851 73.8838 30.222C74.41 28.7751 74.9493 27.328 75.4492 25.881C75.5544 25.5915 75.686 25.4601 76.0017 25.4732C76.4884 25.4994 76.962 25.4863 77.4487 25.4732C77.725 25.4732 77.8039 25.5389 77.6987 25.8152C76.5673 28.8276 75.4361 31.8532 74.3179 34.8657C74.2126 35.1682 74.0417 35.1814 73.7785 35.1946C73.476 35.2077 73.3181 35.1025 73.1865 34.8262C72.4894 33.2345 71.7658 31.6428 71.0555 30.051C70.9634 29.8537 70.8713 29.6696 70.7267 29.3801L70.7398 29.3933Z" fill="white"/>
<path d="M52.1654 34.1952C51.1394 35.1818 49.9028 35.3264 48.5874 35.116C47.3772 34.9186 46.5352 34.1031 46.3116 33.0112C46.0221 31.5641 46.5352 30.2355 47.706 29.4989C48.8374 28.7885 50.1134 28.6569 51.4157 28.749C52.0076 28.7885 52.0734 28.7227 51.8366 28.157C51.5735 27.5257 51.021 27.2888 50.4027 27.223C49.6135 27.131 48.8374 27.1704 48.0875 27.4599C47.7718 27.5783 47.6534 27.5257 47.6008 27.2099C47.5744 27.0521 47.5218 26.9074 47.4823 26.7495C47.2982 26.1005 47.5262 25.6927 48.1664 25.5261C49.2583 25.2499 50.3501 25.2236 51.4551 25.4472C53.0864 25.776 53.9019 26.7363 54.1255 28.5518C54.2834 29.762 54.2045 30.9853 54.2308 32.2088C54.2439 32.998 54.2571 33.7874 54.8622 34.3924C55.0332 34.5766 54.8886 34.6819 54.7833 34.8002C54.3623 35.3133 53.3099 35.379 52.7574 34.8923C52.547 34.7082 52.3891 34.4714 52.1654 34.2083V34.1952ZM50.9421 30.4329C50.3106 30.4329 49.7056 30.5117 49.153 30.8538C48.6268 31.1827 48.4426 31.6957 48.4953 32.3009C48.5347 32.7744 48.7584 33.1296 49.2188 33.3138C50.6659 33.8531 51.9287 33.0243 51.9682 31.4852C51.9945 30.4461 51.9813 30.4329 50.9421 30.4461V30.4329Z" fill="white"/>
<path d="M115.072 30.2344C115.111 31.5761 114.835 32.8391 113.888 33.8387C112.441 35.3516 110.639 35.5095 108.771 34.9175C106.876 34.3123 106.14 32.7601 105.93 30.9053C105.851 30.1817 105.89 29.4714 106.061 28.761C106.626 26.4458 108.547 25.1172 111.02 25.3144C113.375 25.4986 114.928 27.1036 115.085 29.5241C115.098 29.7608 115.085 29.9976 115.085 30.2475L115.072 30.2344ZM112.77 30.1817C112.796 29.7871 112.731 29.3793 112.651 28.9584C112.415 27.8139 111.731 27.1956 110.665 27.1299C109.653 27.0641 108.797 27.6691 108.468 28.7347C108.153 29.7082 108.165 30.7079 108.415 31.6946C108.692 32.7864 109.363 33.3389 110.389 33.3783C111.455 33.4046 112.191 32.8784 112.546 31.8261C112.718 31.3131 112.783 30.7737 112.77 30.1949V30.1817Z" fill="white"/>
<path d="M84.9881 30.2097C84.9881 28.789 84.9881 27.3683 84.9881 25.9476C84.9881 25.5923 85.0538 25.4214 85.4485 25.474C85.6194 25.5003 85.8168 25.5003 85.9879 25.474C86.422 25.4214 86.7245 25.5266 86.8561 25.9871C86.9218 26.2633 87.027 26.3159 87.3033 26.1054C88.6056 25.0794 90.0658 25.0531 91.5128 25.6844C92.9072 26.3027 93.3808 27.5393 93.394 28.9863C93.4071 30.8543 93.394 32.7091 93.394 34.5772C93.394 34.9323 93.315 35.0901 92.9336 35.0507C92.3547 34.9849 91.5918 35.3006 91.2628 34.9323C90.9735 34.6165 91.1708 33.8667 91.1708 33.3142C91.1708 31.9988 91.184 30.6702 91.1577 29.3547C91.1445 28.5785 91.0393 27.7892 90.2237 27.4078C89.3159 26.9999 88.4609 27.1841 87.6716 27.7498C87.3691 27.9602 87.2375 28.2233 87.2507 28.6048C87.2638 30.5649 87.2507 32.525 87.2638 34.4851C87.2638 34.9323 87.1586 35.0901 86.6982 35.0507C86.1588 34.9981 85.4353 35.2217 85.1327 34.9455C84.7644 34.6297 85.0276 33.8931 85.0144 33.3405C84.9881 32.3013 85.0144 31.2621 85.0144 30.2229L84.9881 30.2097Z" fill="white"/>
<path d="M115.466 35.0227C116.584 33.5362 117.597 32.1418 118.663 30.8001C119.044 30.3133 119.097 29.9976 118.689 29.4846C117.703 28.2217 116.795 26.9062 115.769 25.4855C116.677 25.4855 117.466 25.4855 118.242 25.4855C118.44 25.4855 118.505 25.7092 118.61 25.8538C119.111 26.5774 119.624 27.2877 120.11 28.0244C120.307 28.3138 120.425 28.3006 120.623 28.0244C121.188 27.2745 121.768 26.5379 122.346 25.7881C122.464 25.6302 122.57 25.4592 122.807 25.4592C123.544 25.4592 124.28 25.4592 125.03 25.4592C125.004 25.7881 124.793 25.9328 124.648 26.1038C123.74 27.2745 122.833 28.4454 121.886 29.5899C121.57 29.9713 121.518 30.2212 121.886 30.629C123.084 32.0234 124.228 33.4573 125.491 34.9964C124.543 34.9964 123.715 34.9964 122.886 34.9964C122.676 34.9964 122.596 34.7992 122.491 34.6544C121.873 33.8915 121.241 33.1284 120.675 32.3392C120.373 31.9183 120.229 31.9972 119.979 32.3787C119.466 33.1416 118.913 33.8783 118.387 34.6413C118.216 34.8912 118.032 35.0227 117.703 35.0096C117.006 34.9833 116.296 35.0096 115.453 35.0096L115.466 35.0227Z" fill="white"/>
<path d="M58.9013 26.3282C60.059 25.2757 61.256 25.1574 62.5321 25.4205C63.1766 25.5521 63.2029 25.6178 62.9136 26.1834C62.8478 26.315 62.782 26.4334 62.7162 26.5518C62.5583 26.8544 62.4795 27.249 62.2295 27.4332C61.9796 27.6305 61.6638 27.2753 61.3613 27.2227C60.0721 26.9991 58.9539 27.9989 58.9276 29.4721C58.9013 31.1297 58.9013 32.8003 58.9276 34.4578C58.9276 34.9314 58.8092 35.1025 58.3225 35.0498C57.7832 34.9972 57.086 35.2602 56.7571 34.9446C56.415 34.6157 56.6519 33.9185 56.6519 33.3923C56.6519 30.9455 56.6519 28.5118 56.6387 26.0651C56.6387 25.5652 56.7966 25.4336 57.2439 25.4863C57.5464 25.5126 57.8489 25.5126 58.1515 25.4863C58.6777 25.4336 59.0855 25.4863 58.875 26.3413L58.9013 26.3282Z" fill="white"/>
<path d="M82.8565 30.2742C82.8565 31.7081 82.8565 33.1551 82.8565 34.589C82.8565 34.9178 82.7775 35.0625 82.4224 35.0362C82.0014 35.0099 81.5805 34.9968 81.1595 35.0362C80.6991 35.0757 80.5412 34.9441 80.5544 34.4574C80.5807 32.2606 80.5544 30.0638 80.5807 27.8668C80.5807 27.4064 80.4491 27.2486 80.015 27.3275C79.4493 27.4328 79.3178 27.1829 79.3309 26.6435C79.3704 25.4727 79.3309 25.4727 80.5412 25.4727C81.1201 25.4727 81.712 25.499 82.2908 25.4727C82.7249 25.4464 82.8828 25.5516 82.8696 26.0252C82.8301 27.4459 82.8696 28.8666 82.8696 30.2873L82.8565 30.2742Z" fill="white"/>
<path d="M81.7247 24.3677C80.988 24.3677 80.4355 23.7889 80.4355 23.0653C80.4355 22.3418 81.0143 21.7893 81.751 21.7893C82.4745 21.7893 83.0533 22.3813 83.0402 23.0916C83.0402 23.802 82.435 24.3809 81.7116 24.3677H81.7247Z" fill="white"/>
<path d="M21.5689 14.1867C22.1345 14.1867 22.6871 14.1735 23.2527 14.1604C23.4895 15.1207 23.3054 16.0941 23.3448 17.0676C23.3448 17.3175 23.1343 17.2387 22.9896 17.2517C21.9284 17.3132 21.3979 17.8832 21.3979 18.9619C21.3979 23.9212 21.3848 28.8938 21.3979 33.8531C21.3979 34.3004 21.3058 34.4977 20.8059 34.4582C20.2008 34.4056 19.5957 34.4451 19.0037 34.4582C18.5696 34.4582 18.0829 34.5635 18.3591 33.7216C17.0963 34.5635 15.8465 34.774 14.5048 34.6819C12.2422 34.5372 10.44 33.1954 9.72958 31.0643C9.09815 29.17 9.07185 27.2494 9.72958 25.3419C10.8872 21.9875 14.4784 20.3037 17.8329 21.5533C17.9645 21.606 18.0961 21.6454 18.3197 21.7244C18.3197 20.5668 18.3197 19.4618 18.3197 18.3567C18.3197 17.6728 18.4249 17.0018 18.7406 16.3835C19.3326 15.1996 20.2403 14.4234 21.582 14.1999L21.5689 14.1867ZM18.3065 27.9466C18.3065 26.9468 18.2933 25.9471 18.3065 24.9473C18.3065 24.6053 18.1881 24.4079 17.8987 24.2238C16.0702 23.1056 13.6102 23.908 12.821 25.8813C12.3869 26.9732 12.3474 28.1177 12.571 29.2489C13.0314 31.6694 15.6361 32.8534 17.8329 31.6826C18.1749 31.4984 18.3197 31.2879 18.3065 30.8802C18.2802 29.9067 18.3065 28.9201 18.3065 27.9466Z" fill="white"/>
</g>
</g>
</g>
<defs>
<clipPath id="clip0_1_9547">
<rect width="128" height="56" fill="white"/>
</clipPath>
<clipPath id="clip1_1_9547">
<rect width="128" height="56" fill="white"/>
</clipPath>
</defs>
</svg>
