<svg width="33" height="30" viewBox="0 0 33 30" fill="none" xmlns="http://www.w3.org/2000/svg">
<path fill-rule="evenodd" clip-rule="evenodd" d="M17.7582 8.592V11.986C18.469 10.9034 19.4486 10.0238 20.6013 9.43342C21.7541 8.84304 23.0403 8.56206 24.3342 8.618C31.2442 8.618 32.7382 12.938 32.7382 18.558V30H26.3382V19.856C26.3382 17.436 25.8502 14.324 22.0822 14.324C18.4282 14.324 17.8042 16.958 17.8042 19.676V30H11.4242V8.592H17.7582ZM7.13821 3.212C7.13742 3.84601 6.94948 4.46567 6.59797 4.99331C6.24645 5.52094 5.74699 5.93306 5.16221 6.178C4.57766 6.42096 3.93405 6.48452 3.31327 6.36058C2.6925 6.23664 2.12263 5.9308 1.67621 5.482C1.22894 5.03292 0.924434 4.46161 0.80099 3.83993C0.677545 3.21825 0.74067 2.57395 0.982426 1.98805C1.22418 1.40215 1.63378 0.900814 2.1597 0.547078C2.68562 0.193343 3.30439 0.00300481 3.93821 0C4.35945 -2.96179e-06 4.77654 0.0831632 5.16557 0.244728C5.5546 0.406293 5.9079 0.643077 6.2052 0.941497C6.50251 1.23992 6.73797 1.5941 6.89807 1.98373C7.05818 2.37336 7.13978 2.79076 7.13821 3.212Z" fill="#EFB407"/>
<path d="M7.13944 8.61719H0.739441V29.9992H7.13944V8.61719Z" fill="#EFB407"/>
</svg>
