<svg width="41" height="40" viewBox="0 0 41 40" fill="none" xmlns="http://www.w3.org/2000/svg">
<path fill-rule="evenodd" clip-rule="evenodd" d="M9.34405 0C7.07115 -1.67598e-07 4.89129 0.902681 3.28379 2.50956C1.6763 4.11643 0.772784 6.29594 0.771912 8.56884V31.4279C0.771912 33.7013 1.67504 35.8817 3.28263 37.4893C4.89022 39.0969 7.07058 40 9.34405 40H32.2031C34.476 39.9991 36.6555 39.0956 38.2624 37.4881C39.8692 35.8806 40.7719 33.7008 40.7719 31.4279V8.56884C40.771 6.29651 39.868 4.1175 38.2612 2.51072C36.6544 0.903939 34.4754 0.000872463 32.2031 0H9.34405ZM34.6687 8.58201C34.6687 9.23681 34.4086 9.86479 33.9456 10.3278C33.4826 10.7908 32.8546 11.0509 32.1998 11.0509C31.545 11.0509 30.917 10.7908 30.454 10.3278C29.991 9.86479 29.7308 9.23681 29.7308 8.58201C29.7308 7.92721 29.991 7.29923 30.454 6.83621C30.917 6.3732 31.545 6.11308 32.1998 6.11308C32.8546 6.11308 33.4826 6.3732 33.9456 6.83621C34.4086 7.29923 34.6687 7.92721 34.6687 8.58201ZM20.7768 13.1512C18.9609 13.1512 17.2193 13.8726 15.9352 15.1567C14.6511 16.4408 13.9297 18.1824 13.9297 19.9984C13.9297 21.8143 14.6511 23.5559 15.9352 24.84C17.2193 26.1241 18.9609 26.8455 20.7768 26.8455C22.5928 26.8455 24.3344 26.1241 25.6185 24.84C26.9026 23.5559 27.624 21.8143 27.624 19.9984C27.624 18.1824 26.9026 16.4408 25.6185 15.1567C24.3344 13.8726 22.5928 13.1512 20.7768 13.1512ZM10.6345 19.9984C10.6345 17.3093 11.7027 14.7304 13.6041 12.8289C15.5056 10.9275 18.0845 9.85927 20.7736 9.85927C23.4626 9.85927 26.0415 10.9275 27.943 12.8289C29.8444 14.7304 30.9126 17.3093 30.9126 19.9984C30.9126 22.6874 29.8444 25.2663 27.943 27.1678C26.0415 29.0692 23.4626 30.1374 20.7736 30.1374C18.0845 30.1374 15.5056 29.0692 13.6041 27.1678C11.7027 25.2663 10.6345 22.6874 10.6345 19.9984Z" fill="#EFB407"/>
</svg>
