<svg width="41" height="40" viewBox="0 0 41 40" fill="none" xmlns="http://www.w3.org/2000/svg">
<path d="M34.2354 6.25H11.7354C11.0723 6.25 10.4364 6.51339 9.96758 6.98223C9.49874 7.45107 9.23535 8.08696 9.23535 8.75V11.25H6.73535C6.07231 11.25 5.43643 11.5134 4.96758 11.9822C4.49874 12.4511 4.23535 13.087 4.23535 13.75V31.25C4.23535 31.913 4.49874 32.5489 4.96758 33.0178C5.43643 33.4866 6.07231 33.75 6.73535 33.75H29.2354C29.8984 33.75 30.5343 33.4866 31.0031 33.0178C31.472 32.5489 31.7354 31.913 31.7354 31.25V28.75H34.2354C34.8984 28.75 35.5343 28.4866 36.0031 28.0178C36.472 27.5489 36.7354 26.913 36.7354 26.25V8.75C36.7354 8.08696 36.472 7.45107 36.0031 6.98223C35.5343 6.51339 34.8984 6.25 34.2354 6.25ZM29.2354 13.75V16.25H6.73535V13.75H29.2354ZM29.2354 31.25H6.73535V18.75H29.2354V31.25ZM34.2354 26.25H31.7354V13.75C31.7354 13.087 31.472 12.4511 31.0031 11.9822C30.5343 11.5134 29.8984 11.25 29.2354 11.25H11.7354V8.75H34.2354V26.25Z" fill="#EFB407"/>
</svg>
