<svg width="30" height="36" viewBox="0 0 30 36" fill="none" xmlns="http://www.w3.org/2000/svg">
<path d="M23.801 5.64C22.4935 4.07905 21.7728 2.0748 21.773 0H15.861V24.8C15.8163 26.1424 15.2746 27.4142 14.3501 28.347C13.4256 29.2798 12.1906 29.8008 10.9056 29.8C8.18878 29.8 5.93112 27.48 5.93112 24.6C5.93112 21.16 9.10714 18.58 12.3788 19.64V13.32C5.77806 12.4 0 17.76 0 24.6C0 31.26 5.28061 36 10.8865 36C16.8941 36 21.773 30.9 21.773 24.6V12.02C24.1703 13.8197 27.0485 14.7853 30 14.78V8.6C30 8.6 26.4031 8.78 23.801 5.64Z" fill="#EFB407"/>
</svg>
