<svg width="41" height="28" viewBox="0 0 41 28" fill="none" xmlns="http://www.w3.org/2000/svg">
<path fill-rule="evenodd" clip-rule="evenodd" d="M40.3308 6.03358C40.1417 4.60582 39.5936 3.24858 38.737 2.08754C37.6755 1.02397 36.236 0.418468 34.7293 0.401838C29.14 5.68845e-07 20.7388 0 20.7388 0C20.7388 0 12.3417 5.68845e-07 6.74429 0.401838C5.23837 0.418993 3.79963 1.02446 2.73863 2.08754C1.87636 3.24637 1.32697 4.6056 1.14283 6.03559C0.892606 8.17402 0.757747 10.3243 0.738831 12.477V15.4908C0.757747 17.6436 0.892606 19.7938 1.14283 21.9323C1.33271 23.3628 1.87811 24.725 2.72651 25.8944C3.94659 26.9713 5.51411 27.5761 7.14424 27.5982C10.3419 27.9016 20.7409 28 20.7409 28C20.7409 28 29.1461 28 34.7354 27.5982C36.243 27.5815 37.6834 26.9752 38.7451 25.9104C39.5975 24.7468 40.1439 23.3896 40.3348 21.9624C40.5851 19.824 40.7199 17.6737 40.7388 15.521V12.475C40.7148 10.3223 40.5786 8.17227 40.3308 6.03358ZM16.713 19.2018V7.91016L27.621 13.5741L16.713 19.2018Z" fill="#EFB407"/>
</svg>
